  0
SECTION
  2
HEADER
  9
$ACADVER
  1
AC1014
  9
$HANDSEED
  5
FFFF
  9
$INSUNITS
 70
     4
  9
$MEASUREMENT
 70
     1
  0
ENDSEC
  0
SECTION
  2
TABLES
  0
TABLE
  2
VPORT
  5
8
330
0
100
AcDbSymbolTable
 70
     4
  0
VPORT
  5
2E
330
8
100
AcDbSymbolTableRecord
100
AcDbViewportTableRecord
  2
*ACTIVE
 70
     0
 10
0.0
 20
0.0
 11
1.0
 21
1.0
 12
210.0
 22
148.5
 13
0.0
 23
0.0
 14
10.0
 24
10.0
 15
10.0
 25
10.0
 16
0.0
 26
0.0
 36
1.0
 17
0.0
 27
0.0
 37
0.0
 40
341.0
 41
1.24
 42
50.0
 43
0.0
 44
0.0
 50
0.0
 51
0.0
 71
     0
 72
   100
 73
     1
 74
     3
 75
     0
 76
     0
 77
     0
 78
     0
  0
ENDTAB
  0
TABLE
  2
LTYPE
  5
5
330
0
100
AcDbSymbolTable
 70
     1
  0
LTYPE
  5
14
330
5
100
AcDbSymbolTableRecord
100
AcDbLinetypeTableRecord
  2
BYBLOCK
 70
     0
  3

 72
    65
 73
     0
 40
0.0
  0
LTYPE
  5
15
330
5
100
AcDbSymbolTableRecord
100
AcDbLinetypeTableRecord
  2
BYLAYER
 70
     0
  3

 72
    65
 73
     0
 40
0.0
  0
LTYPE
  5
16
330
5
100
AcDbSymbolTableRecord
100
AcDbLinetypeTableRecord
  2
CONTINUOUS
 70
     0
  3
Solid line
 72
    65
 73
     0
 40
0.0
  0
ENDTAB
  0
TABLE
  2
LAYER
  5
2
100
AcDbSymbolTable
 70
3
  0
LAYER
  5
50
100
AcDbSymbolTableRecord
100
AcDbLayerTableRecord
  2
0
 70
0
  6
CONTINUOUS
  0
LAYER
  5
51
100
AcDbSymbolTableRecord
100
AcDbLayerTableRecord
  2
edge
 70
0
  6
CONTINUOUS
  0
LAYER
  5
52
100
AcDbSymbolTableRecord
100
AcDbLayerTableRecord
  2
holes
 70
0
  6
CONTINUOUS
  0
ENDTAB
  0
TABLE
  2
STYLE
  5
3
330
0
100
AcDbSymbolTable
 70
     1
  0
STYLE
  5
11
330
3
100
AcDbSymbolTableRecord
100
AcDbTextStyleTableRecord
  2
STANDARD
 70
     0
 40
0.0
 41
1.0
 50
0.0
 71
     0
 42
2.5
  3
txt
  4

  0
ENDTAB
  0
TABLE
  2
VIEW
  5
6
330
0
100
AcDbSymbolTable
 70
     0
  0
ENDTAB
  0
TABLE
  2
UCS
  5
7
330
0
100
AcDbSymbolTable
 70
     0
  0
ENDTAB
  0
TABLE
  2
APPID
  5
9
330
0
100
AcDbSymbolTable
 70
     2
  0
APPID
  5
12
330
9
100
AcDbSymbolTableRecord
100
AcDbRegAppTableRecord
  2
ACAD
 70
     0
  0
ENDTAB
  0
TABLE
  2
DIMSTYLE
  5
A
330
0
100
AcDbSymbolTable
 70
     1
  0
DIMSTYLE
105
27
330
A
100
AcDbSymbolTableRecord
100
AcDbDimStyleTableRecord
  2
ISO-25
 70
     0
  3

  4

  5

  6

  7

 40
1.0
 41
2.5
 42
0.625
 43
3.75
 44
1.25
 45
0.0
 46
0.0
 47
0.0
 48
0.0
140
2.5
141
2.5
142
0.0
143
0.03937007874016
144
1.0
145
0.0
146
1.0
147
0.625
 71
     0
 72
     0
 73
     0
 74
     0
 75
     0
 76
     0
 77
     1
 78
     8
170
     0
171
     3
172
     1
173
     0
174
     0
175
     0
176
     0
177
     0
178
     0
270
     2
271
     2
272
     2
273
     2
274
     3
340
11
275
     0
280
     0
281
     0
282
     0
283
     0
284
     8
285
     0
286
     0
287
     3
288
     0
  0
ENDTAB
  0
TABLE
  2
BLOCK_RECORD
  5
1
330
0
100
AcDbSymbolTable
 70
     1
  0
BLOCK_RECORD
  5
1F
330
1
100
AcDbSymbolTableRecord
100
AcDbBlockTableRecord
  2
*MODEL_SPACE
  0
BLOCK_RECORD
  5
1B
330
1
100
AcDbSymbolTableRecord
100
AcDbBlockTableRecord
  2
*PAPER_SPACE
  0
ENDTAB
  0
ENDSEC
  0
SECTION
  2
BLOCKS
  0
BLOCK
  5
20
330
1F
100
AcDbEntity
  8
0
100
AcDbBlockBegin
  2
*MODEL_SPACE
 70
     0
 10
0.0
 20
0.0
 30
0.0
  3
*MODEL_SPACE
  1

  0
ENDBLK
  5
21
330
1F
100
AcDbEntity
  8
0
100
AcDbBlockEnd
  0
BLOCK
  5
1C
330
1B
100
AcDbEntity
 67
     1
  8
0
100
AcDbBlockBegin
  2
*PAPER_SPACE
  1

  0
ENDBLK
  5
1D
330
1B
100
AcDbEntity
 67
     1
  8
0
100
AcDbBlockEnd
  0
ENDSEC
  0
SECTION
  2
ENTITIES
  0
LINE
  5
100
100
AcDbEntity
  8
edge
 62
1
100
AcDbLine
 10
42.590384
 20
52.312382
 30
0.0
 11
42.597906
 21
52.292688
 31
0.0
  0
LINE
  5
101
100
AcDbEntity
  8
edge
 62
1
100
AcDbLine
 10
0.133428
 20
6.507544
 30
0.0
 11
0.132085
 21
6.528949
 31
0.0
  0
LINE
  5
102
100
AcDbEntity
  8
edge
 62
1
100
AcDbLine
 10
0.175674
 20
6.343780
 30
0.0
 11
0.167445
 21
6.363268
 31
0.0
  0
LINE
  5
103
100
AcDbEntity
  8
edge
 62
1
100
AcDbLine
 10
0.133579
 20
6.593782
 30
0.0
 11
0.135972
 21
6.615511
 31
0.0
  0
LINE
  5
104
100
AcDbEntity
  8
edge
 62
1
100
AcDbLine
 10
0.139315
 20
6.637240
 30
0.0
 11
0.143646
 21
6.658958
 31
0.0
  0
LINE
  5
105
100
AcDbEntity
  8
edge
 62
1
100
AcDbLine
 10
42.227427
 20
52.616097
 30
0.0
 11
42.247641
 21
52.611379
 31
0.0
  0
LINE
  5
106
100
AcDbEntity
  8
edge
 62
1
100
AcDbLine
 10
54.835955
 20
6.615551
 30
0.0
 11
54.838348
 21
6.593833
 31
0.0
  0
LINE
  5
107
100
AcDbEntity
  8
edge
 62
1
100
AcDbLine
 10
0.351685
 20
6.132995
 30
0.0
 11
0.333914
 21
6.145698
 31
0.0
  0
LINE
  5
108
100
AcDbEntity
  8
edge
 62
1
100
AcDbLine
 10
42.165230
 20
52.625254
 30
0.0
 11
42.186201
 21
52.623051
 31
0.0
  0
LINE
  5
109
100
AcDbEntity
  8
edge
 62
1
100
AcDbLine
 10
0.160034
 20
6.383098
 30
0.0
 11
0.153450
 21
6.403221
 31
0.0
  0
LINE
  5
10a
100
AcDbEntity
  8
edge
 62
1
100
AcDbLine
 10
54.838510
 20
6.507594
 30
0.0
 11
54.833128
 21
6.465237
 31
0.0
  0
LINE
  5
10b
100
AcDbEntity
  8
edge
 62
1
100
AcDbLine
 10
54.838348
 20
6.593833
 30
0.0
 11
54.840277
 21
6.550527
 31
0.0
  0
LINE
  5
10c
100
AcDbEntity
  8
edge
 62
1
100
AcDbLine
 10
0.205157
 20
6.287581
 30
0.0
 11
0.194535
 21
6.305907
 31
0.0
  0
LINE
  5
10d
100
AcDbEntity
  8
edge
 62
1
100
AcDbLine
 10
54.828281
 20
6.659009
 30
0.0
 11
54.832613
 21
6.637290
 31
0.0
  0
LINE
  5
10e
100
AcDbEntity
  8
edge
 62
1
100
AcDbLine
 10
27.485969
 20
0.132732
 30
0.0
 11
12.216922
 21
0.132732
 31
0.0
  0
LINE
  5
10f
100
AcDbEntity
  8
edge
 62
1
100
AcDbLine
 10
12.744520
 20
52.616100
 30
0.0
 11
12.765007
 21
52.619996
 31
0.0
  0
LINE
  5
110
100
AcDbEntity
  8
edge
 62
1
100
AcDbLine
 10
12.495528
 20
52.482419
 30
0.0
 11
12.510341
 21
52.496385
 31
0.0
  0
LINE
  5
111
100
AcDbEntity
  8
edge
 62
1
100
AcDbLine
 10
0.300352
 20
6.173141
 30
0.0
 11
0.284600
 21
6.187812
 31
0.0
  0
LINE
  5
112
100
AcDbEntity
  8
edge
 62
1
100
AcDbLine
 10
54.671616
 20
6.173171
 30
0.0
 11
54.638054
 21
6.145728
 31
0.0
  0
LINE
  5
113
100
AcDbEntity
  8
edge
 62
1
100
AcDbLine
 10
0.148947
 20
6.680637
 30
0.0
 11
10.245361
 21
44.300431
 31
0.0
  0
LINE
  5
114
100
AcDbEntity
  8
edge
 62
1
100
AcDbLine
 10
12.374041
 20
52.292668
 30
0.0
 11
12.381553
 21
52.312364
 31
0.0
  0
LINE
  5
115
100
AcDbEntity
  8
edge
 62
1
100
AcDbLine
 10
0.389185
 20
6.109732
 30
0.0
 11
0.370122
 21
6.120990
 31
0.0
  0
LINE
  5
116
100
AcDbEntity
  8
edge
 62
1
100
AcDbLine
 10
0.135680
 20
6.486279
 30
0.0
 11
0.133428
 21
6.507544
 31
0.0
  0
LINE
  5
117
100
AcDbEntity
  8
edge
 62
1
100
AcDbLine
 10
0.184711
 20
6.324647
 30
0.0
 11
0.175674
 21
6.343780
 31
0.0
  0
LINE
  5
118
100
AcDbEntity
  8
edge
 62
1
100
AcDbLine
 10
12.665481
 20
52.592450
 30
0.0
 11
12.684766
 21
52.599540
 31
0.0
  0
LINE
  5
119
100
AcDbEntity
  8
edge
 62
1
100
AcDbLine
 10
54.796274
 20
6.343821
 30
0.0
 11
54.777413
 21
6.305947
 31
0.0
  0
LINE
  5
11a
100
AcDbEntity
  8
edge
 62
1
100
AcDbLine
 10
12.849257
 20
52.627040
 30
0.0
 11
27.485969
 21
52.627036
 31
0.0
  0
LINE
  5
11b
100
AcDbEntity
  8
edge
 62
1
100
AcDbLine
 10
42.597906
 20
52.292688
 30
0.0
 11
42.604641
 21
52.272568
 31
0.0
  0
LINE
  5
11c
100
AcDbEntity
  8
edge
 62
1
100
AcDbLine
 10
44.726576
 20
44.300431
 30
0.0
 11
54.822970
 21
6.680687
 31
0.0
  0
LINE
  5
11d
100
AcDbEntity
  8
edge
 62
1
100
AcDbLine
 10
12.454514
 20
52.436983
 30
0.0
 11
12.467590
 21
52.452702
 31
0.0
  0
LINE
  5
11e
100
AcDbEntity
  8
edge
 62
1
100
AcDbLine
 10
12.419104
 20
52.386573
 30
0.0
 11
12.430251
 21
52.403902
 31
0.0
  0
LINE
  5
11f
100
AcDbEntity
  8
edge
 62
1
100
AcDbLine
 10
54.811914
 20
6.383139
 30
0.0
 11
54.796274
 21
6.343821
 31
0.0
  0
LINE
  5
120
100
AcDbEntity
  8
edge
 62
1
100
AcDbLine
 10
42.122691
 20
52.627036
 30
0.0
 11
42.144056
 21
52.626588
 31
0.0
  0
LINE
  5
121
100
AcDbEntity
  8
edge
 62
1
100
AcDbLine
 10
42.490666
 20
52.467860
 30
0.0
 11
42.517423
 21
52.436992
 31
0.0
  0
LINE
  5
122
100
AcDbEntity
  8
edge
 62
1
100
AcDbLine
 10
54.755421
 20
6.269729
 30
0.0
 11
54.730391
 21
6.235389
 31
0.0
  0
LINE
  5
123
100
AcDbEntity
  8
edge
 62
1
100
AcDbLine
 10
0.147715
 20
6.423638
 30
0.0
 11
0.142828
 21
6.444306
 31
0.0
  0
LINE
  5
124
100
AcDbEntity
  8
edge
 62
1
100
AcDbLine
 10
42.247641
 20
52.611379
 30
0.0
 11
42.287181
 21
52.599538
 31
0.0
  0
LINE
  5
125
100
AcDbEntity
  8
edge
 62
1
100
AcDbLine
 10
0.142828
 20
6.444306
 30
0.0
 11
0.138810
 21
6.465197
 31
0.0
  0
LINE
  5
126
100
AcDbEntity
  8
edge
 62
1
100
AcDbLine
 10
42.186201
 20
52.623051
 30
0.0
 11
42.206940
 21
52.619993
 31
0.0
  0
LINE
  5
127
100
AcDbEntity
  8
edge
 62
1
100
AcDbLine
 10
54.777413
 20
6.305947
 30
0.0
 11
54.755421
 21
6.269729
 31
0.0
  0
LINE
  5
128
100
AcDbEntity
  8
edge
 62
1
100
AcDbLine
 10
0.135972
 20
6.615511
 30
0.0
 11
0.139315
 21
6.637240
 31
0.0
  0
LINE
  5
129
100
AcDbEntity
  8
edge
 62
1
100
AcDbLine
 10
54.563094
 20
6.099261
 30
0.0
 11
42.755016
 21
0.132732
 31
0.0
  0
LINE
  5
12a
100
AcDbEntity
  8
edge
 62
1
100
AcDbLine
 10
42.604641
 20
52.272568
 30
0.0
 11
42.610568
 21
52.252039
 31
0.0
  0
LINE
  5
12b
100
AcDbEntity
  8
edge
 62
1
100
AcDbLine
 10
12.389843
 20
52.331618
 30
0.0
 11
12.398880
 21
52.350415
 31
0.0
  0
LINE
  5
12c
100
AcDbEntity
  8
edge
 62
1
100
AcDbLine
 10
12.481271
 20
52.467853
 30
0.0
 11
12.495528
 21
52.482419
 31
0.0
  0
LINE
  5
12d
100
AcDbEntity
  8
edge
 62
1
100
AcDbLine
 10
0.153450
 20
6.403221
 30
0.0
 11
0.147715
 21
6.423638
 31
0.0
  0
LINE
  5
12e
100
AcDbEntity
  8
edge
 62
1
100
AcDbLine
 10
12.442065
 20
52.420711
 30
0.0
 11
12.454514
 21
52.436983
 31
0.0
  0
LINE
  5
12f
100
AcDbEntity
  8
edge
 62
1
100
AcDbLine
 10
0.167445
 20
6.363268
 30
0.0
 11
0.160034
 21
6.383098
 31
0.0
  0
LINE
  5
130
100
AcDbEntity
  8
edge
 62
1
100
AcDbLine
 10
54.702422
 20
6.203129
 30
0.0
 11
54.671616
 21
6.173171
 31
0.0
  0
LINE
  5
131
100
AcDbEntity
  8
edge
 62
1
100
AcDbLine
 10
0.284600
 20
6.187812
 30
0.0
 11
0.269536
 21
6.203089
 31
0.0
  0
LINE
  5
132
100
AcDbEntity
  8
edge
 62
1
100
AcDbLine
 10
0.143646
 20
6.658958
 30
0.0
 11
0.148947
 21
6.680637
 31
0.0
  0
LINE
  5
133
100
AcDbEntity
  8
edge
 62
1
100
AcDbLine
 10
12.381553
 20
52.312364
 30
0.0
 11
12.389843
 21
52.331618
 31
0.0
  0
LINE
  5
134
100
AcDbEntity
  8
edge
 62
1
100
AcDbLine
 10
12.806718
 20
52.625258
 30
0.0
 11
12.827891
 21
52.626592
 31
0.0
  0
LINE
  5
135
100
AcDbEntity
  8
edge
 62
1
100
AcDbLine
 10
42.610558
 20
52.252015
 30
0.0
 11
44.726576
 21
44.300431
 31
0.0
  0
LINE
  5
136
100
AcDbEntity
  8
edge
 62
1
100
AcDbLine
 10
12.628001
 20
52.576007
 30
0.0
 11
12.646559
 21
52.584599
 31
0.0
  0
LINE
  5
137
100
AcDbEntity
  8
edge
 62
1
100
AcDbLine
 10
0.132085
 20
6.528949
 30
0.0
 11
0.131651
 21
6.550476
 31
0.0
  0
LINE
  5
138
100
AcDbEntity
  8
edge
 62
1
100
AcDbLine
 10
54.601856
 20
6.121020
 30
0.0
 11
54.582783
 21
6.109752
 31
0.0
  0
LINE
  5
139
100
AcDbEntity
  8
edge
 62
1
100
AcDbLine
 10
0.316790
 20
6.159096
 30
0.0
 11
0.300352
 21
6.173141
 31
0.0
  0
LINE
  5
13a
100
AcDbEntity
  8
edge
 62
1
100
AcDbLine
 10
12.765007
 20
52.619996
 30
0.0
 11
12.785746
 21
52.623054
 31
0.0
  0
LINE
  5
13b
100
AcDbEntity
  8
edge
 62
1
100
AcDbLine
 10
42.362091
 20
52.566687
 30
0.0
 11
42.397148
 21
52.545931
 31
0.0
  0
LINE
  5
13c
100
AcDbEntity
  8
edge
 62
1
100
AcDbLine
 10
42.573058
 20
52.350431
 30
0.0
 11
42.582094
 21
52.331635
 31
0.0
  0
LINE
  5
13d
100
AcDbEntity
  8
edge
 62
1
100
AcDbLine
 10
0.216536
 20
6.269689
 30
0.0
 11
0.205157
 21
6.287581
 31
0.0
  0
LINE
  5
13e
100
AcDbEntity
  8
edge
 62
1
100
AcDbLine
 10
0.228683
 20
6.252271
 30
0.0
 11
0.216536
 21
6.269689
 31
0.0
  0
LINE
  5
13f
100
AcDbEntity
  8
edge
 62
1
100
AcDbLine
 10
42.563294
 20
52.368754
 30
0.0
 11
42.573058
 21
52.350431
 31
0.0
  0
LINE
  5
140
100
AcDbEntity
  8
edge
 62
1
100
AcDbLine
 10
42.287181
 20
52.599538
 30
0.0
 11
42.325388
 21
52.584599
 31
0.0
  0
LINE
  5
141
100
AcDbEntity
  8
edge
 62
1
100
AcDbLine
 10
42.755016
 20
0.132732
 30
0.0
 11
27.485969
 21
0.132732
 31
0.0
  0
LINE
  5
142
100
AcDbEntity
  8
edge
 62
1
100
AcDbLine
 10
27.485969
 20
52.627036
 30
0.0
 11
42.122691
 21
52.627036
 31
0.0
  0
LINE
  5
143
100
AcDbEntity
  8
edge
 62
1
100
AcDbLine
 10
0.132146
 20
6.572104
 30
0.0
 11
0.133579
 21
6.593782
 31
0.0
  0
LINE
  5
144
100
AcDbEntity
  8
edge
 62
1
100
AcDbLine
 10
42.582094
 20
52.331635
 30
0.0
 11
42.590384
 21
52.312382
 31
0.0
  0
LINE
  5
145
100
AcDbEntity
  8
edge
 62
1
100
AcDbLine
 10
42.144056
 20
52.626588
 30
0.0
 11
42.165230
 21
52.625254
 31
0.0
  0
LINE
  5
146
100
AcDbEntity
  8
edge
 62
1
100
AcDbLine
 10
12.216922
 20
0.132732
 30
0.0
 11
0.408884
 21
6.099231
 31
0.0
  0
LINE
  5
147
100
AcDbEntity
  8
edge
 62
1
100
AcDbLine
 10
54.840277
 20
6.550527
 30
0.0
 11
54.838510
 21
6.507594
 31
0.0
  0
LINE
  5
148
100
AcDbEntity
  8
edge
 62
1
100
AcDbLine
 10
12.574800
 20
52.545929
 30
0.0
 11
12.592106
 21
52.556656
 31
0.0
  0
LINE
  5
149
100
AcDbEntity
  8
edge
 62
1
100
AcDbLine
 10
54.832613
 20
6.637290
 30
0.0
 11
54.835955
 21
6.615551
 31
0.0
  0
LINE
  5
14a
100
AcDbEntity
  8
edge
 62
1
100
AcDbLine
 10
12.827891
 20
52.626592
 30
0.0
 11
12.849257
 21
52.627040
 31
0.0
  0
LINE
  5
14b
100
AcDbEntity
  8
edge
 62
1
100
AcDbLine
 10
12.541571
 20
52.522452
 30
0.0
 11
12.557948
 21
52.534522
 31
0.0
  0
LINE
  5
14c
100
AcDbEntity
  8
edge
 62
1
100
AcDbLine
 10
42.517423
 20
52.436992
 30
0.0
 11
42.541686
 21
52.403915
 31
0.0
  0
LINE
  5
14d
100
AcDbEntity
  8
edge
 62
1
100
AcDbLine
 10
54.833128
 20
6.465237
 30
0.0
 11
54.824232
 21
6.423678
 31
0.0
  0
LINE
  5
14e
100
AcDbEntity
  8
edge
 62
1
100
AcDbLine
 10
10.245361
 20
44.300431
 30
0.0
 11
12.361370
 21
52.252015
 31
0.0
  0
LINE
  5
14f
100
AcDbEntity
  8
edge
 62
1
100
AcDbLine
 10
0.241567
 20
6.235349
 30
0.0
 11
0.228683
 21
6.252271
 31
0.0
  0
LINE
  5
150
100
AcDbEntity
  8
edge
 62
1
100
AcDbLine
 10
0.255198
 20
6.218951
 30
0.0
 11
0.241567
 21
6.235349
 31
0.0
  0
LINE
  5
151
100
AcDbEntity
  8
edge
 62
1
100
AcDbLine
 10
12.430251
 20
52.403902
 30
0.0
 11
12.442065
 21
52.420711
 31
0.0
  0
LINE
  5
152
100
AcDbEntity
  8
edge
 62
1
100
AcDbLine
 10
0.138810
 20
6.465197
 30
0.0
 11
0.135680
 21
6.486279
 31
0.0
  0
LINE
  5
153
100
AcDbEntity
  8
edge
 62
1
100
AcDbLine
 10
42.541686
 20
52.403915
 30
0.0
 11
42.563294
 21
52.368754
 31
0.0
  0
LINE
  5
154
100
AcDbEntity
  8
edge
 62
1
100
AcDbLine
 10
54.638054
 20
6.145728
 30
0.0
 11
54.620283
 21
6.133016
 31
0.0
  0
LINE
  5
155
100
AcDbEntity
  8
edge
 62
1
100
AcDbLine
 10
12.367296
 20
52.272547
 30
0.0
 11
12.374041
 21
52.292668
 31
0.0
  0
LINE
  5
156
100
AcDbEntity
  8
edge
 62
1
100
AcDbLine
 10
12.609847
 20
52.566687
 30
0.0
 11
12.628001
 21
52.576007
 31
0.0
  0
LINE
  5
157
100
AcDbEntity
  8
edge
 62
1
100
AcDbLine
 10
12.525698
 20
52.509735
 30
0.0
 11
12.541571
 21
52.522452
 31
0.0
  0
LINE
  5
158
100
AcDbEntity
  8
edge
 62
1
100
AcDbLine
 10
54.822970
 20
6.680687
 30
0.0
 11
54.828281
 21
6.659009
 31
0.0
  0
LINE
  5
159
100
AcDbEntity
  8
edge
 62
1
100
AcDbLine
 10
12.557948
 20
52.534522
 30
0.0
 11
12.574800
 21
52.545929
 31
0.0
  0
LINE
  5
15a
100
AcDbEntity
  8
edge
 62
1
100
AcDbLine
 10
12.785746
 20
52.623054
 30
0.0
 11
12.806718
 21
52.625258
 31
0.0
  0
LINE
  5
15b
100
AcDbEntity
  8
edge
 62
1
100
AcDbLine
 10
12.592106
 20
52.556656
 30
0.0
 11
12.609847
 21
52.566687
 31
0.0
  0
LINE
  5
15c
100
AcDbEntity
  8
edge
 62
1
100
AcDbLine
 10
12.684766
 20
52.599540
 30
0.0
 11
12.704375
 21
52.605857
 31
0.0
  0
LINE
  5
15d
100
AcDbEntity
  8
edge
 62
1
100
AcDbLine
 10
0.408884
 20
6.099231
 30
0.0
 11
0.389185
 21
6.109732
 31
0.0
  0
LINE
  5
15e
100
AcDbEntity
  8
edge
 62
1
100
AcDbLine
 10
0.269536
 20
6.203089
 30
0.0
 11
0.255198
 21
6.218951
 31
0.0
  0
LINE
  5
15f
100
AcDbEntity
  8
edge
 62
1
100
AcDbLine
 10
54.620283
 20
6.133016
 30
0.0
 11
54.601856
 21
6.121020
 31
0.0
  0
LINE
  5
160
100
AcDbEntity
  8
edge
 62
1
100
AcDbLine
 10
12.408644
 20
52.368739
 30
0.0
 11
12.419104
 21
52.386573
 31
0.0
  0
LINE
  5
161
100
AcDbEntity
  8
edge
 62
1
100
AcDbLine
 10
54.582783
 20
6.109752
 30
0.0
 11
54.563094
 21
6.099261
 31
0.0
  0
LINE
  5
162
100
AcDbEntity
  8
edge
 62
1
100
AcDbLine
 10
12.361370
 20
52.252015
 30
0.0
 11
12.367296
 21
52.272547
 31
0.0
  0
LINE
  5
163
100
AcDbEntity
  8
edge
 62
1
100
AcDbLine
 10
42.461597
 20
52.496391
 30
0.0
 11
42.490666
 21
52.467860
 31
0.0
  0
LINE
  5
164
100
AcDbEntity
  8
edge
 62
1
100
AcDbLine
 10
42.206940
 20
52.619993
 30
0.0
 11
42.227427
 21
52.616097
 31
0.0
  0
LINE
  5
165
100
AcDbEntity
  8
edge
 62
1
100
AcDbLine
 10
42.397148
 20
52.545931
 30
0.0
 11
42.430367
 21
52.522456
 31
0.0
  0
LINE
  5
166
100
AcDbEntity
  8
edge
 62
1
100
AcDbLine
 10
12.510341
 20
52.496385
 30
0.0
 11
12.525698
 21
52.509735
 31
0.0
  0
LINE
  5
167
100
AcDbEntity
  8
edge
 62
1
100
AcDbLine
 10
0.370122
 20
6.120990
 30
0.0
 11
0.351685
 21
6.132995
 31
0.0
  0
LINE
  5
168
100
AcDbEntity
  8
edge
 62
1
100
AcDbLine
 10
12.467590
 20
52.452702
 30
0.0
 11
12.481271
 21
52.467853
 31
0.0
  0
LINE
  5
169
100
AcDbEntity
  8
edge
 62
1
100
AcDbLine
 10
12.704375
 20
52.605857
 30
0.0
 11
12.724306
 21
52.611382
 31
0.0
  0
LINE
  5
16a
100
AcDbEntity
  8
edge
 62
1
100
AcDbLine
 10
0.131651
 20
6.550476
 30
0.0
 11
0.132146
 21
6.572104
 31
0.0
  0
LINE
  5
16b
100
AcDbEntity
  8
edge
 62
1
100
AcDbLine
 10
42.325388
 20
52.584599
 30
0.0
 11
42.362091
 21
52.566687
 31
0.0
  0
LINE
  5
16c
100
AcDbEntity
  8
edge
 62
1
100
AcDbLine
 10
12.646559
 20
52.584599
 30
0.0
 11
12.665481
 21
52.592450
 31
0.0
  0
LINE
  5
16d
100
AcDbEntity
  8
edge
 62
1
100
AcDbLine
 10
54.824232
 20
6.423678
 30
0.0
 11
54.811914
 21
6.383139
 31
0.0
  0
LINE
  5
16e
100
AcDbEntity
  8
edge
 62
1
100
AcDbLine
 10
0.194535
 20
6.305907
 30
0.0
 11
0.184711
 21
6.324647
 31
0.0
  0
LINE
  5
16f
100
AcDbEntity
  8
edge
 62
1
100
AcDbLine
 10
42.430367
 20
52.522456
 30
0.0
 11
42.461597
 21
52.496391
 31
0.0
  0
LINE
  5
170
100
AcDbEntity
  8
edge
 62
1
100
AcDbLine
 10
12.724306
 20
52.611382
 30
0.0
 11
12.744520
 21
52.616100
 31
0.0
  0
LINE
  5
171
100
AcDbEntity
  8
edge
 62
1
100
AcDbLine
 10
12.398880
 20
52.350415
 30
0.0
 11
12.408644
 21
52.368739
 31
0.0
  0
LINE
  5
172
100
AcDbEntity
  8
edge
 62
1
100
AcDbLine
 10
54.730391
 20
6.235389
 30
0.0
 11
54.702422
 21
6.203129
 31
0.0
  0
LINE
  5
173
100
AcDbEntity
  8
edge
 62
1
100
AcDbLine
 10
0.333914
 20
6.145698
 30
0.0
 11
0.316790
 21
6.159096
 31
0.0
  0
SPLINE
  5
174
100
AcDbEntity
  8
holes
 62
1
100
AcDbSpline
 70
8
 71
3
 72
8
 73
4
 74
0
 40
0
 40
0
 40
0
 40
0
 40
1
 40
1
 40
1
 40
1
 10
26.745000
 20
8.764078
 30
0.0
 10
26.404197
 20
8.764078
 30
0.0
 10
26.077352
 20
8.628694
 30
0.0
 10
25.836368
 20
8.387710
 30
0.0
  0
SPLINE
  5
175
100
AcDbEntity
  8
holes
 62
1
100
AcDbSpline
 70
8
 71
3
 72
8
 73
4
 74
0
 40
0
 40
0
 40
0
 40
0
 40
1
 40
1
 40
1
 40
1
 10
25.836368
 20
8.387710
 30
0.0
 10
25.595384
 20
8.146726
 30
0.0
 10
25.460000
 20
7.819881
 30
0.0
 10
25.460000
 20
7.479078
 30
0.0
  0
SPLINE
  5
176
100
AcDbEntity
  8
holes
 62
1
100
AcDbSpline
 70
8
 71
3
 72
8
 73
4
 74
0
 40
0
 40
0
 40
0
 40
0
 40
1
 40
1
 40
1
 40
1
 10
25.460000
 20
7.479078
 30
0.0
 10
25.460000
 20
7.138275
 30
0.0
 10
25.595384
 20
6.811430
 30
0.0
 10
25.836368
 20
6.570446
 30
0.0
  0
SPLINE
  5
177
100
AcDbEntity
  8
holes
 62
1
100
AcDbSpline
 70
8
 71
3
 72
8
 73
4
 74
0
 40
0
 40
0
 40
0
 40
0
 40
1
 40
1
 40
1
 40
1
 10
25.836368
 20
6.570446
 30
0.0
 10
26.077352
 20
6.329462
 30
0.0
 10
26.404197
 20
6.194078
 30
0.0
 10
26.745000
 20
6.194078
 30
0.0
  0
LINE
  5
178
100
AcDbEntity
  8
holes
 62
1
100
AcDbLine
 10
26.745000
 20
6.194078
 30
0.0
 11
28.525000
 21
6.194078
 31
0.0
  0
SPLINE
  5
179
100
AcDbEntity
  8
holes
 62
1
100
AcDbSpline
 70
8
 71
3
 72
8
 73
4
 74
0
 40
0
 40
0
 40
0
 40
0
 40
1
 40
1
 40
1
 40
1
 10
28.525000
 20
6.194078
 30
0.0
 10
28.865803
 20
6.194078
 30
0.0
 10
29.192648
 20
6.329462
 30
0.0
 10
29.433632
 20
6.570446
 30
0.0
  0
SPLINE
  5
17a
100
AcDbEntity
  8
holes
 62
1
100
AcDbSpline
 70
8
 71
3
 72
8
 73
4
 74
0
 40
0
 40
0
 40
0
 40
0
 40
1
 40
1
 40
1
 40
1
 10
29.433632
 20
6.570446
 30
0.0
 10
29.674616
 20
6.811430
 30
0.0
 10
29.810000
 20
7.138275
 30
0.0
 10
29.810000
 20
7.479078
 30
0.0
  0
SPLINE
  5
17b
100
AcDbEntity
  8
holes
 62
1
100
AcDbSpline
 70
8
 71
3
 72
8
 73
4
 74
0
 40
0
 40
0
 40
0
 40
0
 40
1
 40
1
 40
1
 40
1
 10
29.810000
 20
7.479078
 30
0.0
 10
29.810000
 20
7.819881
 30
0.0
 10
29.674616
 20
8.146726
 30
0.0
 10
29.433632
 20
8.387710
 30
0.0
  0
SPLINE
  5
17c
100
AcDbEntity
  8
holes
 62
1
100
AcDbSpline
 70
8
 71
3
 72
8
 73
4
 74
0
 40
0
 40
0
 40
0
 40
0
 40
1
 40
1
 40
1
 40
1
 10
29.433632
 20
8.387710
 30
0.0
 10
29.192648
 20
8.628694
 30
0.0
 10
28.865803
 20
8.764078
 30
0.0
 10
28.525000
 20
8.764078
 30
0.0
  0
LINE
  5
17d
100
AcDbEntity
  8
holes
 62
1
100
AcDbLine
 10
28.525000
 20
8.764078
 30
0.0
 11
26.745000
 21
8.764078
 31
0.0
  0
SPLINE
  5
17e
100
AcDbEntity
  8
holes
 62
7
100
AcDbSpline
 70
8
 71
3
 72
8
 73
4
 74
0
 40
0
 40
0
 40
0
 40
0
 40
1
 40
1
 40
1
 40
1
 10
50.980000
 20
8.634078
 30
0.0
 10
50.980000
 20
8.342340
 30
0.0
 10
50.864107
 20
8.062551
 30
0.0
 10
50.657817
 20
7.856261
 30
0.0
  0
SPLINE
  5
17f
100
AcDbEntity
  8
holes
 62
7
100
AcDbSpline
 70
8
 71
3
 72
8
 73
4
 74
0
 40
0
 40
0
 40
0
 40
0
 40
1
 40
1
 40
1
 40
1
 10
50.657817
 20
7.856261
 30
0.0
 10
50.451527
 20
7.649971
 30
0.0
 10
50.171738
 20
7.534078
 30
0.0
 10
49.880000
 20
7.534078
 30
0.0
  0
SPLINE
  5
180
100
AcDbEntity
  8
holes
 62
7
100
AcDbSpline
 70
8
 71
3
 72
8
 73
4
 74
0
 40
0
 40
0
 40
0
 40
0
 40
1
 40
1
 40
1
 40
1
 10
49.880000
 20
7.534078
 30
0.0
 10
49.272487
 20
7.534078
 30
0.0
 10
48.780000
 20
8.026565
 30
0.0
 10
48.780000
 20
8.634078
 30
0.0
  0
SPLINE
  5
181
100
AcDbEntity
  8
holes
 62
7
100
AcDbSpline
 70
8
 71
3
 72
8
 73
4
 74
0
 40
0
 40
0
 40
0
 40
0
 40
1
 40
1
 40
1
 40
1
 10
48.780000
 20
8.634078
 30
0.0
 10
48.780000
 20
8.925816
 30
0.0
 10
48.895893
 20
9.205605
 30
0.0
 10
49.102183
 20
9.411895
 30
0.0
  0
SPLINE
  5
182
100
AcDbEntity
  8
holes
 62
7
100
AcDbSpline
 70
8
 71
3
 72
8
 73
4
 74
0
 40
0
 40
0
 40
0
 40
0
 40
1
 40
1
 40
1
 40
1
 10
49.102183
 20
9.411895
 30
0.0
 10
49.308473
 20
9.618185
 30
0.0
 10
49.588262
 20
9.734078
 30
0.0
 10
49.880000
 20
9.734078
 30
0.0
  0
SPLINE
  5
183
100
AcDbEntity
  8
holes
 62
7
100
AcDbSpline
 70
8
 71
3
 72
8
 73
4
 74
0
 40
0
 40
0
 40
0
 40
0
 40
1
 40
1
 40
1
 40
1
 10
49.880000
 20
9.734078
 30
0.0
 10
50.171738
 20
9.734078
 30
0.0
 10
50.451527
 20
9.618185
 30
0.0
 10
50.657817
 20
9.411895
 30
0.0
  0
SPLINE
  5
184
100
AcDbEntity
  8
holes
 62
7
100
AcDbSpline
 70
8
 71
3
 72
8
 73
4
 74
0
 40
0
 40
0
 40
0
 40
0
 40
1
 40
1
 40
1
 40
1
 10
50.657817
 20
9.411895
 30
0.0
 10
50.864107
 20
9.205605
 30
0.0
 10
50.980000
 20
8.925816
 30
0.0
 10
50.980000
 20
8.634078
 30
0.0
  0
LINE
  5
185
100
AcDbEntity
  8
holes
 62
7
100
AcDbLine
 10
50.980000
 20
8.634078
 30
0.0
 11
50.980000
 21
8.634078
 31
0.0
  0
SPLINE
  5
186
100
AcDbEntity
  8
holes
 62
7
100
AcDbSpline
 70
8
 71
3
 72
8
 73
4
 74
0
 40
0
 40
0
 40
0
 40
0
 40
1
 40
1
 40
1
 40
1
 10
44.390000
 20
33.284078
 30
0.0
 10
44.390000
 20
32.992340
 30
0.0
 10
44.274107
 20
32.712551
 30
0.0
 10
44.067817
 20
32.506261
 30
0.0
  0
SPLINE
  5
187
100
AcDbEntity
  8
holes
 62
7
100
AcDbSpline
 70
8
 71
3
 72
8
 73
4
 74
0
 40
0
 40
0
 40
0
 40
0
 40
1
 40
1
 40
1
 40
1
 10
44.067817
 20
32.506261
 30
0.0
 10
43.861527
 20
32.299971
 30
0.0
 10
43.581738
 20
32.184078
 30
0.0
 10
43.290000
 20
32.184078
 30
0.0
  0
SPLINE
  5
188
100
AcDbEntity
  8
holes
 62
7
100
AcDbSpline
 70
8
 71
3
 72
8
 73
4
 74
0
 40
0
 40
0
 40
0
 40
0
 40
1
 40
1
 40
1
 40
1
 10
43.290000
 20
32.184078
 30
0.0
 10
42.998262
 20
32.184078
 30
0.0
 10
42.718473
 20
32.299971
 30
0.0
 10
42.512183
 20
32.506261
 30
0.0
  0
SPLINE
  5
189
100
AcDbEntity
  8
holes
 62
7
100
AcDbSpline
 70
8
 71
3
 72
8
 73
4
 74
0
 40
0
 40
0
 40
0
 40
0
 40
1
 40
1
 40
1
 40
1
 10
42.512183
 20
32.506261
 30
0.0
 10
42.305893
 20
32.712551
 30
0.0
 10
42.190000
 20
32.992340
 30
0.0
 10
42.190000
 20
33.284078
 30
0.0
  0
SPLINE
  5
18a
100
AcDbEntity
  8
holes
 62
7
100
AcDbSpline
 70
8
 71
3
 72
8
 73
4
 74
0
 40
0
 40
0
 40
0
 40
0
 40
1
 40
1
 40
1
 40
1
 10
42.190000
 20
33.284078
 30
0.0
 10
42.190000
 20
33.575816
 30
0.0
 10
42.305893
 20
33.855605
 30
0.0
 10
42.512183
 20
34.061895
 30
0.0
  0
SPLINE
  5
18b
100
AcDbEntity
  8
holes
 62
7
100
AcDbSpline
 70
8
 71
3
 72
8
 73
4
 74
0
 40
0
 40
0
 40
0
 40
0
 40
1
 40
1
 40
1
 40
1
 10
42.512183
 20
34.061895
 30
0.0
 10
42.718473
 20
34.268185
 30
0.0
 10
42.998262
 20
34.384078
 30
0.0
 10
43.290000
 20
34.384078
 30
0.0
  0
SPLINE
  5
18c
100
AcDbEntity
  8
holes
 62
7
100
AcDbSpline
 70
8
 71
3
 72
8
 73
4
 74
0
 40
0
 40
0
 40
0
 40
0
 40
1
 40
1
 40
1
 40
1
 10
43.290000
 20
34.384078
 30
0.0
 10
43.581738
 20
34.384078
 30
0.0
 10
43.861527
 20
34.268185
 30
0.0
 10
44.067817
 20
34.061895
 30
0.0
  0
SPLINE
  5
18d
100
AcDbEntity
  8
holes
 62
7
100
AcDbSpline
 70
8
 71
3
 72
8
 73
4
 74
0
 40
0
 40
0
 40
0
 40
0
 40
1
 40
1
 40
1
 40
1
 10
44.067817
 20
34.061895
 30
0.0
 10
44.274107
 20
33.855605
 30
0.0
 10
44.390000
 20
33.575816
 30
0.0
 10
44.390000
 20
33.284078
 30
0.0
  0
LINE
  5
18e
100
AcDbEntity
  8
holes
 62
7
100
AcDbLine
 10
44.390000
 20
33.284078
 30
0.0
 11
44.390000
 21
33.284078
 31
0.0
  0
SPLINE
  5
18f
100
AcDbEntity
  8
holes
 62
7
100
AcDbSpline
 70
8
 71
3
 72
8
 73
4
 74
0
 40
0
 40
0
 40
0
 40
0
 40
1
 40
1
 40
1
 40
1
 10
12.670000
 20
33.284078
 30
0.0
 10
12.670000
 20
32.992340
 30
0.0
 10
12.554107
 20
32.712551
 30
0.0
 10
12.347817
 20
32.506261
 30
0.0
  0
SPLINE
  5
190
100
AcDbEntity
  8
holes
 62
7
100
AcDbSpline
 70
8
 71
3
 72
8
 73
4
 74
0
 40
0
 40
0
 40
0
 40
0
 40
1
 40
1
 40
1
 40
1
 10
12.347817
 20
32.506261
 30
0.0
 10
12.141527
 20
32.299971
 30
0.0
 10
11.861738
 20
32.184078
 30
0.0
 10
11.570000
 20
32.184078
 30
0.0
  0
SPLINE
  5
191
100
AcDbEntity
  8
holes
 62
7
100
AcDbSpline
 70
8
 71
3
 72
8
 73
4
 74
0
 40
0
 40
0
 40
0
 40
0
 40
1
 40
1
 40
1
 40
1
 10
11.570000
 20
32.184078
 30
0.0
 10
11.278262
 20
32.184078
 30
0.0
 10
10.998473
 20
32.299971
 30
0.0
 10
10.792183
 20
32.506261
 30
0.0
  0
SPLINE
  5
192
100
AcDbEntity
  8
holes
 62
7
100
AcDbSpline
 70
8
 71
3
 72
8
 73
4
 74
0
 40
0
 40
0
 40
0
 40
0
 40
1
 40
1
 40
1
 40
1
 10
10.792183
 20
32.506261
 30
0.0
 10
10.585893
 20
32.712551
 30
0.0
 10
10.470000
 20
32.992340
 30
0.0
 10
10.470000
 20
33.284078
 30
0.0
  0
SPLINE
  5
193
100
AcDbEntity
  8
holes
 62
7
100
AcDbSpline
 70
8
 71
3
 72
8
 73
4
 74
0
 40
0
 40
0
 40
0
 40
0
 40
1
 40
1
 40
1
 40
1
 10
10.470000
 20
33.284078
 30
0.0
 10
10.470000
 20
33.575816
 30
0.0
 10
10.585893
 20
33.855605
 30
0.0
 10
10.792183
 20
34.061895
 30
0.0
  0
SPLINE
  5
194
100
AcDbEntity
  8
holes
 62
7
100
AcDbSpline
 70
8
 71
3
 72
8
 73
4
 74
0
 40
0
 40
0
 40
0
 40
0
 40
1
 40
1
 40
1
 40
1
 10
10.792183
 20
34.061895
 30
0.0
 10
10.998473
 20
34.268185
 30
0.0
 10
11.278262
 20
34.384078
 30
0.0
 10
11.570000
 20
34.384078
 30
0.0
  0
SPLINE
  5
195
100
AcDbEntity
  8
holes
 62
7
100
AcDbSpline
 70
8
 71
3
 72
8
 73
4
 74
0
 40
0
 40
0
 40
0
 40
0
 40
1
 40
1
 40
1
 40
1
 10
11.570000
 20
34.384078
 30
0.0
 10
11.861738
 20
34.384078
 30
0.0
 10
12.141527
 20
34.268185
 30
0.0
 10
12.347817
 20
34.061895
 30
0.0
  0
SPLINE
  5
196
100
AcDbEntity
  8
holes
 62
7
100
AcDbSpline
 70
8
 71
3
 72
8
 73
4
 74
0
 40
0
 40
0
 40
0
 40
0
 40
1
 40
1
 40
1
 40
1
 10
12.347817
 20
34.061895
 30
0.0
 10
12.554107
 20
33.855605
 30
0.0
 10
12.670000
 20
33.575816
 30
0.0
 10
12.670000
 20
33.284078
 30
0.0
  0
LINE
  5
197
100
AcDbEntity
  8
holes
 62
7
100
AcDbLine
 10
12.670000
 20
33.284078
 30
0.0
 11
12.670000
 21
33.284078
 31
0.0
  0
SPLINE
  5
198
100
AcDbEntity
  8
holes
 62
7
100
AcDbSpline
 70
8
 71
3
 72
8
 73
4
 74
0
 40
0
 40
0
 40
0
 40
0
 40
1
 40
1
 40
1
 40
1
 10
6.070000
 20
8.594078
 30
0.0
 10
6.070000
 20
8.302340
 30
0.0
 10
5.954107
 20
8.022551
 30
0.0
 10
5.747817
 20
7.816261
 30
0.0
  0
SPLINE
  5
199
100
AcDbEntity
  8
holes
 62
7
100
AcDbSpline
 70
8
 71
3
 72
8
 73
4
 74
0
 40
0
 40
0
 40
0
 40
0
 40
1
 40
1
 40
1
 40
1
 10
5.747817
 20
7.816261
 30
0.0
 10
5.541527
 20
7.609971
 30
0.0
 10
5.261738
 20
7.494078
 30
0.0
 10
4.970000
 20
7.494078
 30
0.0
  0
SPLINE
  5
19a
100
AcDbEntity
  8
holes
 62
7
100
AcDbSpline
 70
8
 71
3
 72
8
 73
4
 74
0
 40
0
 40
0
 40
0
 40
0
 40
1
 40
1
 40
1
 40
1
 10
4.970000
 20
7.494078
 30
0.0
 10
4.678262
 20
7.494078
 30
0.0
 10
4.398473
 20
7.609971
 30
0.0
 10
4.192183
 20
7.816261
 30
0.0
  0
SPLINE
  5
19b
100
AcDbEntity
  8
holes
 62
7
100
AcDbSpline
 70
8
 71
3
 72
8
 73
4
 74
0
 40
0
 40
0
 40
0
 40
0
 40
1
 40
1
 40
1
 40
1
 10
4.192183
 20
7.816261
 30
0.0
 10
3.985893
 20
8.022551
 30
0.0
 10
3.870000
 20
8.302340
 30
0.0
 10
3.870000
 20
8.594078
 30
0.0
  0
SPLINE
  5
19c
100
AcDbEntity
  8
holes
 62
7
100
AcDbSpline
 70
8
 71
3
 72
8
 73
4
 74
0
 40
0
 40
0
 40
0
 40
0
 40
1
 40
1
 40
1
 40
1
 10
3.870000
 20
8.594078
 30
0.0
 10
3.870000
 20
8.885816
 30
0.0
 10
3.985893
 20
9.165605
 30
0.0
 10
4.192183
 20
9.371895
 30
0.0
  0
SPLINE
  5
19d
100
AcDbEntity
  8
holes
 62
7
100
AcDbSpline
 70
8
 71
3
 72
8
 73
4
 74
0
 40
0
 40
0
 40
0
 40
0
 40
1
 40
1
 40
1
 40
1
 10
4.192183
 20
9.371895
 30
0.0
 10
4.398473
 20
9.578185
 30
0.0
 10
4.678262
 20
9.694078
 30
0.0
 10
4.970000
 20
9.694078
 30
0.0
  0
SPLINE
  5
19e
100
AcDbEntity
  8
holes
 62
7
100
AcDbSpline
 70
8
 71
3
 72
8
 73
4
 74
0
 40
0
 40
0
 40
0
 40
0
 40
1
 40
1
 40
1
 40
1
 10
4.970000
 20
9.694078
 30
0.0
 10
5.261738
 20
9.694078
 30
0.0
 10
5.541527
 20
9.578185
 30
0.0
 10
5.747817
 20
9.371895
 30
0.0
  0
SPLINE
  5
19f
100
AcDbEntity
  8
holes
 62
7
100
AcDbSpline
 70
8
 71
3
 72
8
 73
4
 74
0
 40
0
 40
0
 40
0
 40
0
 40
1
 40
1
 40
1
 40
1
 10
5.747817
 20
9.371895
 30
0.0
 10
5.954107
 20
9.165605
 30
0.0
 10
6.070000
 20
8.885816
 30
0.0
 10
6.070000
 20
8.594078
 30
0.0
  0
LINE
  5
1a0
100
AcDbEntity
  8
holes
 62
7
100
AcDbLine
 10
6.070000
 20
8.594078
 30
0.0
 11
6.070000
 21
8.594078
 31
0.0
  0
ENDSEC
  0
SECTION
  2
OBJECTS
  0
DICTIONARY
  5
C
330
0
100
AcDbDictionary
  3
ACAD_GROUP
350
D
  3
ACAD_MLINESTYLE
350
17
  0
DICTIONARY
  5
D
330
C
100
AcDbDictionary
  0
DICTIONARY
  5
1A
330
C
100
AcDbDictionary
  0
DICTIONARY
  5
17
330
C
100
AcDbDictionary
  3
STANDARD
350
18
  0
DICTIONARY
  5
19
330
C
100
AcDbDictionary
  0
ENDSEC
  0
EOF
